{
	"patcher" : 	{
		"fileversion" : 1,
		"rect" : [ 44.0, 44.0, 484.0, 680.0 ],
		"bglocked" : 0,
		"defrect" : [ 44.0, 44.0, 484.0, 680.0 ],
		"openrect" : [ 0.0, 0.0, 0.0, 0.0 ],
		"openinpresentation" : 0,
		"default_fontsize" : 13.0,
		"default_fontface" : 0,
		"default_fontname" : "Arial",
		"gridonopen" : 0,
		"gridsize" : [ 13.0, 13.0 ],
		"gridsnaponopen" : 0,
		"toolbarvisible" : 1,
		"boxanimatetime" : 200,
		"imprint" : 0,
		"enablehscroll" : 1,
		"enablevscroll" : 1,
		"devicewidth" : 0.0,
		"boxes" : [ 			{
				"box" : 				{
					"maxclass" : "comment",
					"text" : "2011 / matt  ganucheau / gancheau.com",
					"numinlets" : 1,
					"id" : "obj-20",
					"fontname" : "Arial",
					"numoutlets" : 0,
					"fontsize" : 11.0,
					"patching_rect" : [ 277.0, 661.0, 207.0, 19.0 ]
				}

			}
, 			{
				"box" : 				{
					"maxclass" : "comment",
					"text" : "processing code",
					"numinlets" : 1,
					"id" : "obj-2",
					"fontname" : "Arial",
					"numoutlets" : 0,
					"fontsize" : 12.0,
					"patching_rect" : [ 94.0, 633.0, 98.0, 20.0 ]
				}

			}
, 			{
				"box" : 				{
					"maxclass" : "textedit",
					"text" : "import oscP5.*;\nimport netP5.*;\n\nOscP5 oscP5;\nint i;\n\nvoid setup() {\n  size(400,400);\n  oscP5 = new OscP5(this,12000);\n}\n\nvoid oscEvent(OscMessage theOscMessage) {\n  String msg = theOscMessage.addrPattern();\n  char c1 = msg.charAt(0);\n  i = int(c1);\n  println(i);  \n}\n\nvoid draw() {\n\n  if (i == 100) {\n    background(0);\n  } \n  \n  if (i == 108) {\n    background(100);\n  } \n  \n  if (i == 114) {\n    background(200);\n  } \n  \n  if (i == 117) {\n    background(255);\n  } \n  \n}",
					"linecount" : 37,
					"numinlets" : 1,
					"id" : "obj-12",
					"fontname" : "Arial",
					"numoutlets" : 4,
					"outlettype" : [ "", "int", "", "" ],
					"fontsize" : 12.0,
					"patching_rect" : [ 15.0, 109.0, 267.0, 522.0 ]
				}

			}
, 			{
				"box" : 				{
					"maxclass" : "comment",
					"text" : "note: this requires the processing OscP5 library",
					"numinlets" : 1,
					"id" : "obj-11",
					"fontname" : "Arial",
					"numoutlets" : 0,
					"fontsize" : 12.0,
					"patching_rect" : [ 207.0, 74.0, 261.0, 20.0 ]
				}

			}
, 			{
				"box" : 				{
					"maxclass" : "comment",
					"text" : "an example of how to send  messages to processing via OSC",
					"numinlets" : 1,
					"id" : "obj-4",
					"fontname" : "Arial",
					"numoutlets" : 0,
					"fontsize" : 12.0,
					"patching_rect" : [ 130.0, 57.0, 338.0, 20.0 ]
				}

			}
, 			{
				"box" : 				{
					"maxclass" : "comment",
					"text" : "itp.max2Processing",
					"numinlets" : 1,
					"id" : "obj-3",
					"fontname" : "Arial",
					"numoutlets" : 0,
					"fontsize" : 18.0,
					"patching_rect" : [ 297.0, 25.0, 171.0, 27.0 ]
				}

			}
, 			{
				"box" : 				{
					"maxclass" : "newobj",
					"text" : "loadmess 1",
					"numinlets" : 1,
					"id" : "obj-14",
					"fontname" : "Arial",
					"color" : [ 0.317647, 0.709804, 0.321569, 1.0 ],
					"numoutlets" : 1,
					"outlettype" : [ "" ],
					"fontsize" : 12.0,
					"patching_rect" : [ 293.0, 110.0, 72.0, 20.0 ]
				}

			}
, 			{
				"box" : 				{
					"maxclass" : "newobj",
					"text" : "sel 1 2 3 4",
					"numinlets" : 1,
					"id" : "obj-13",
					"fontname" : "Arial",
					"numoutlets" : 5,
					"outlettype" : [ "bang", "bang", "bang", "bang", "" ],
					"fontsize" : 12.0,
					"patching_rect" : [ 293.0, 183.0, 170.0, 20.0 ]
				}

			}
, 			{
				"box" : 				{
					"maxclass" : "newobj",
					"text" : "metro 500",
					"numinlets" : 2,
					"id" : "obj-10",
					"fontname" : "Arial",
					"numoutlets" : 1,
					"outlettype" : [ "bang" ],
					"fontsize" : 12.0,
					"patching_rect" : [ 293.0, 134.0, 65.0, 20.0 ]
				}

			}
, 			{
				"box" : 				{
					"maxclass" : "newobj",
					"text" : "counter 1 4",
					"numinlets" : 5,
					"id" : "obj-9",
					"fontname" : "Arial",
					"numoutlets" : 4,
					"outlettype" : [ "int", "", "", "int" ],
					"fontsize" : 12.0,
					"patching_rect" : [ 293.0, 158.0, 71.0, 20.0 ]
				}

			}
, 			{
				"box" : 				{
					"maxclass" : "message",
					"text" : "r",
					"numinlets" : 2,
					"id" : "obj-8",
					"fontname" : "Arial",
					"numoutlets" : 1,
					"outlettype" : [ "" ],
					"fontsize" : 12.0,
					"patching_rect" : [ 406.0, 208.0, 33.0, 18.0 ]
				}

			}
, 			{
				"box" : 				{
					"maxclass" : "message",
					"text" : "l",
					"numinlets" : 2,
					"id" : "obj-7",
					"fontname" : "Arial",
					"numoutlets" : 1,
					"outlettype" : [ "" ],
					"fontsize" : 12.0,
					"patching_rect" : [ 369.0, 208.0, 33.0, 18.0 ]
				}

			}
, 			{
				"box" : 				{
					"maxclass" : "message",
					"text" : "d",
					"numinlets" : 2,
					"id" : "obj-6",
					"fontname" : "Arial",
					"numoutlets" : 1,
					"outlettype" : [ "" ],
					"fontsize" : 12.0,
					"patching_rect" : [ 331.0, 208.0, 33.0, 18.0 ]
				}

			}
, 			{
				"box" : 				{
					"maxclass" : "message",
					"text" : "u",
					"numinlets" : 2,
					"id" : "obj-5",
					"fontname" : "Arial",
					"numoutlets" : 1,
					"outlettype" : [ "" ],
					"fontsize" : 12.0,
					"patching_rect" : [ 293.0, 208.0, 33.0, 18.0 ]
				}

			}
, 			{
				"box" : 				{
					"maxclass" : "newobj",
					"text" : "udpsend localhost 12000",
					"numinlets" : 1,
					"id" : "obj-1",
					"fontname" : "Arial",
					"numoutlets" : 0,
					"fontsize" : 12.0,
					"patching_rect" : [ 293.0, 241.0, 144.0, 20.0 ]
				}

			}
, 			{
				"box" : 				{
					"maxclass" : "panel",
					"grad1" : [ 1.0, 1.0, 1.0, 1.0 ],
					"numinlets" : 1,
					"background" : 1,
					"id" : "obj-33",
					"numoutlets" : 0,
					"patching_rect" : [ 0.0, 0.0, 484.0, 15.0 ],
					"bgcolor" : [ 0.313726, 0.207843, 0.47451, 1.0 ],
					"rounded" : 0
				}

			}
 ],
		"lines" : [ 			{
				"patchline" : 				{
					"source" : [ "obj-13", 3 ],
					"destination" : [ "obj-8", 0 ],
					"hidden" : 0,
					"midpoints" : [  ]
				}

			}
, 			{
				"patchline" : 				{
					"source" : [ "obj-13", 2 ],
					"destination" : [ "obj-7", 0 ],
					"hidden" : 0,
					"midpoints" : [  ]
				}

			}
, 			{
				"patchline" : 				{
					"source" : [ "obj-13", 1 ],
					"destination" : [ "obj-6", 0 ],
					"hidden" : 0,
					"midpoints" : [  ]
				}

			}
, 			{
				"patchline" : 				{
					"source" : [ "obj-13", 0 ],
					"destination" : [ "obj-5", 0 ],
					"hidden" : 0,
					"midpoints" : [  ]
				}

			}
, 			{
				"patchline" : 				{
					"source" : [ "obj-9", 0 ],
					"destination" : [ "obj-13", 0 ],
					"hidden" : 0,
					"midpoints" : [  ]
				}

			}
, 			{
				"patchline" : 				{
					"source" : [ "obj-8", 0 ],
					"destination" : [ "obj-1", 0 ],
					"hidden" : 0,
					"midpoints" : [ 415.5, 230.5, 302.5, 230.5 ]
				}

			}
, 			{
				"patchline" : 				{
					"source" : [ "obj-7", 0 ],
					"destination" : [ "obj-1", 0 ],
					"hidden" : 0,
					"midpoints" : [ 378.5, 230.5, 302.5, 230.5 ]
				}

			}
, 			{
				"patchline" : 				{
					"source" : [ "obj-6", 0 ],
					"destination" : [ "obj-1", 0 ],
					"hidden" : 0,
					"midpoints" : [ 340.5, 230.5, 302.5, 230.5 ]
				}

			}
, 			{
				"patchline" : 				{
					"source" : [ "obj-10", 0 ],
					"destination" : [ "obj-9", 0 ],
					"hidden" : 0,
					"midpoints" : [  ]
				}

			}
, 			{
				"patchline" : 				{
					"source" : [ "obj-14", 0 ],
					"destination" : [ "obj-10", 0 ],
					"hidden" : 0,
					"midpoints" : [  ]
				}

			}
, 			{
				"patchline" : 				{
					"source" : [ "obj-5", 0 ],
					"destination" : [ "obj-1", 0 ],
					"hidden" : 0,
					"midpoints" : [  ]
				}

			}
 ]
	}

}
